<svg xmlns="http://www.w3.org/2000/svg" viewBox="0 0 30 16"><path d="M0,0H30V16H0Z" style="fill:#229e45"/><path d="M15.05,14.86,25.6,8,15,1.14,4.4,8Z" style="fill:#f8e509"/><path d="M19.65,8a4.46,4.46,0,1,1-4.46-4.46h0A4.46,4.46,0,0,1,19.65,8Z" style="fill:#2b49a3"/><polygon points="11.77 7.22 11.62 7.2 11.55 7.05 11.48 7.19 11.32 7.21 11.43 7.32 11.4 7.49 11.54 7.42 11.68 7.49 11.66 7.33 11.77 7.22" style="fill:#ffffef"/><polygon points="12.06 9.04 11.99 8.89 11.92 9.03 11.76 9.05 11.88 9.16 11.84 9.32 11.98 9.25 12.12 9.33 12.1 9.17 12.22 9.06 12.06 9.04" style="fill:#ffffef"/><polygon points="16.65 11.13 16.58 10.98 16.5 11.13 16.35 11.14 16.46 11.26 16.43 11.42 16.57 11.35 16.7 11.43 16.68 11.27 16.8 11.16 16.65 11.13" style="fill:#ffffef"/><polygon points="13.66 10.37 13.59 10.23 13.51 10.37 13.36 10.38 13.47 10.5 13.44 10.66 13.58 10.59 13.72 10.67 13.7 10.51 13.81 10.4 13.66 10.37" style="fill:#ffffef"/><polygon points="15.36 9.96 15.31 9.83 15.24 9.96 15.11 9.97 15.2 10.07 15.18 10.21 15.3 10.15 15.42 10.22 15.4 10.08 15.5 9.98 15.36 9.96" style="fill:#ffffef"/><polygon points="15.08 8.87 15.22 8.8 15.36 8.88 15.34 8.72 15.46 8.61 15.3 8.58 15.23 8.43 15.16 8.57 15 8.59 15.11 8.71 15.08 8.87" style="fill:#ffffef"/><polygon points="16.27 8.01 16.37 7.96 16.47 8.01 16.45 7.9 16.53 7.83 16.42 7.81 16.38 7.7 16.33 7.8 16.21 7.82 16.29 7.89 16.27 8.01" style="fill:#ffffef"/><polygon points="18.33 9.4 18.27 9.53 18.13 9.54 18.23 9.64 18.2 9.77 18.32 9.71 18.44 9.78 18.42 9.64 18.52 9.55 18.39 9.53 18.33 9.4" style="fill:#ffffef"/><polygon points="18.43 9.94 18.39 9.87 18.35 9.94 18.27 9.95 18.33 10.01 18.31 10.09 18.39 10.05 18.46 10.09 18.45 10.01 18.52 9.96 18.43 9.94" style="fill:#ffffef"/><polygon points="16.47 6.81 16.6 6.75 16.72 6.82 16.7 6.67 16.81 6.58 16.67 6.55 16.61 6.42 16.54 6.55 16.4 6.57 16.5 6.67 16.47 6.81" style="fill:#ffffef"/><polygon points="13.59 8 13.51 8.14 13.36 8.16 13.47 8.27 13.44 8.43 13.58 8.36 13.72 8.44 13.7 8.28 13.81 8.17 13.66 8.14 13.59 8" style="fill:#ffffef"/><polygon points="14.87 9.07 14.82 8.97 14.78 9.06 14.67 9.07 14.74 9.15 14.72 9.26 14.81 9.21 14.91 9.26 14.89 9.16 14.97 9.09 14.87 9.07" style="fill:#ffffef"/><polygon points="12.9 9.47 12.85 9.37 12.8 9.46 12.7 9.48 12.77 9.55 12.75 9.66 12.85 9.61 12.94 9.66 12.92 9.56 13.01 9.48 12.9 9.47" style="fill:#ffffef"/><polygon points="17.45 10.57 17.53 10.53 17.61 10.58 17.59 10.48 17.66 10.42 17.57 10.41 17.54 10.32 17.5 10.4 17.41 10.41 17.47 10.48 17.45 10.57" style="fill:#ffffef"/><polygon points="12.53 8.84 12.46 8.83 12.43 8.77 12.4 8.83 12.34 8.83 12.38 8.88 12.37 8.95 12.43 8.92 12.49 8.96 12.48 8.88 12.53 8.84" style="fill:#ffffef"/><polygon points="12.72 9.95 12.67 9.86 12.62 9.95 12.52 9.96 12.59 10.04 12.57 10.15 12.67 10.1 12.76 10.15 12.74 10.04 12.82 9.97 12.72 9.95" style="fill:#ffffef"/><polygon points="17.93 10.41 17.89 10.34 17.85 10.41 17.77 10.42 17.83 10.48 17.81 10.56 17.89 10.52 17.96 10.56 17.95 10.48 18.01 10.43 17.93 10.41" style="fill:#ffffef"/><polygon points="17.57 11.29 17.53 11.2 17.48 11.28 17.39 11.3 17.46 11.37 17.44 11.46 17.52 11.42 17.6 11.47 17.59 11.37 17.66 11.3 17.57 11.29" style="fill:#ffffef"/><polygon points="17.52 10.8 17.47 10.88 17.37 10.89 17.44 10.96 17.41 11.06 17.51 11.02 17.6 11.07 17.58 10.97 17.66 10.9 17.56 10.89 17.52 10.8" style="fill:#ffffef"/><polygon points="19.01 9.55 18.94 9.54 18.9 9.46 18.87 9.53 18.79 9.54 18.84 9.6 18.83 9.68 18.9 9.65 18.97 9.68 18.95 9.61 19.01 9.55" style="fill:#ffffef"/><polygon points="15.15 9.59 15.22 9.62 15.21 9.54 15.27 9.49 15.19 9.47 15.15 9.4 15.12 9.47 15.04 9.48 15.1 9.54 15.08 9.62 15.15 9.59" style="fill:#ffffef"/><polygon points="18.31 10.28 18.27 10.18 18.22 10.27 18.11 10.29 18.18 10.37 18.16 10.47 18.26 10.42 18.35 10.47 18.34 10.37 18.42 10.3 18.31 10.28" style="fill:#ffffef"/><polygon points="15.76 9.07 15.72 8.97 15.67 9.06 15.56 9.07 15.63 9.15 15.61 9.26 15.71 9.21 15.8 9.27 15.79 9.16 15.87 9.09 15.76 9.07" style="fill:#ffffef"/><polygon points="16.9 10.41 16.86 10.35 16.83 10.41 16.75 10.42 16.8 10.48 16.79 10.56 16.86 10.52 16.93 10.56 16.92 10.48 16.97 10.43 16.9 10.41" style="fill:#ffffef"/><polygon points="15.31 11.42 15.29 11.35 15.26 11.41 15.19 11.42 15.23 11.47 15.22 11.54 15.28 11.51 15.34 11.54 15.33 11.47 15.38 11.43 15.31 11.42" style="fill:#ffffef"/><polygon points="16.27 10.41 16.23 10.35 16.2 10.41 16.12 10.42 16.17 10.48 16.16 10.56 16.23 10.52 16.3 10.56 16.28 10.48 16.34 10.43 16.27 10.41" style="fill:#ffffef"/><polygon points="11.43 9.47 11.39 9.37 11.34 9.46 11.23 9.48 11.31 9.55 11.29 9.66 11.38 9.61 11.48 9.67 11.48 9.67 11.48 9.67 11.46 9.56 11.54 9.49 11.43 9.47" style="fill:#ffffef"/><path d="M19.35,9.6a3.4,3.4,0,0,0,.2-.69A10.94,10.94,0,0,0,11.2,6a5.1,5.1,0,0,0-.3.73A10.68,10.68,0,0,1,19.35,9.6Z" style="fill:#fff"/><polygon points="17.68 7.74 17.91 7.88 17.95 7.81 17.64 7.62 17.39 8.04 17.39 8.04 17.71 8.23 17.75 8.16 17.51 8.02 17.58 7.9 17.79 8.03 17.84 7.96 17.63 7.83 17.68 7.74" style="fill:#309e3a"/><polygon points="13.01 6.6 13.38 6.63 13.39 6.55 13.12 6.53 13.13 6.39 13.37 6.42 13.38 6.33 13.14 6.31 13.15 6.2 13.41 6.23 13.42 6.14 13.06 6.11 13.01 6.6" style="fill:#309e3a"/><path d="M18.71,8.49a.15.15,0,0,0,0-.11.22.22,0,0,0-.09-.12l-.09,0a.11.11,0,0,0-.08,0,.12.12,0,0,0-.07.15.24.24,0,0,0,.06.11l.05.06,0,0s0,0,0,0a.05.05,0,0,1,0,0l-.07,0-.05-.06a.11.11,0,0,1,0-.08l-.08-.05h0a.24.24,0,0,0,0,.14.27.27,0,0,0,.09.12l.1.05a.15.15,0,0,0,.09,0s.05,0,.06-.05a.12.12,0,0,0,0-.15l-.06-.08a.16.16,0,0,1-.06-.08,0,0,0,0,1,0,0s0,0,0,0l.06,0,.05.05a.13.13,0,0,1,0,.06Z" style="fill:#309e3a"/><polygon points="13.76 6.54 13.72 6.19 13.58 6.17 13.51 6.66 13.6 6.67 13.65 6.29 13.69 6.68 13.79 6.7 13.94 6.33 13.88 6.71 13.97 6.73 14.04 6.24 13.9 6.22 13.76 6.54" style="fill:#309e3a"/><path d="M16.66,7.44l.1,0,0,.06h-.06l-.06,0a.14.14,0,0,1-.07-.08.17.17,0,0,1,0-.14.16.16,0,0,1,.09-.09.14.14,0,0,1,.11,0l.05,0a.17.17,0,0,1,0,.07l.09,0a.17.17,0,0,0,0-.12.18.18,0,0,0-.11-.1.2.2,0,0,0-.23,0,.22.22,0,0,0-.09.1.2.2,0,0,0,0,.13.19.19,0,0,0,0,.12.22.22,0,0,0,.1.09l.12,0h.1l.08-.18-.18-.08Z" style="fill:#309e3a"/><path d="M18.31,8.21a.17.17,0,0,0,0-.12.27.27,0,0,0-.1-.11.16.16,0,0,0-.09,0,.11.11,0,0,0-.08,0,.12.12,0,0,0,0,0,.12.12,0,0,0,0,.1.41.41,0,0,0,.07.11l.06.06,0,0v0a.05.05,0,0,1-.05,0l-.07,0A.1.1,0,0,1,18,8.29a.17.17,0,0,1,0-.07l-.09-.05a.22.22,0,0,0,0,.14.18.18,0,0,0,.1.11l.1,0h.08a.13.13,0,0,0,.07-.06.12.12,0,0,0,0-.14.71.71,0,0,0-.07-.09.19.19,0,0,1-.06-.07s0,0,0,0,0,0,0,0l.06,0,.05,0a.13.13,0,0,1,0,.06Z" style="fill:#309e3a"/><path d="M11.62,6l-.11,0-.06,0a.18.18,0,0,0,0,.07.51.51,0,0,0,0,.13.21.21,0,0,0,.06.18.21.21,0,0,0,.17.07.19.19,0,0,0,.17-.06.26.26,0,0,0,.07-.18.25.25,0,0,0-.06-.2A.26.26,0,0,0,11.62,6Zm.09.39a.13.13,0,0,1-.1,0,.12.12,0,0,1-.1,0,.19.19,0,0,1,0-.12.19.19,0,0,1,0-.13.12.12,0,0,1,.1,0,.13.13,0,0,1,.1,0,.19.19,0,0,1,0,.13A.2.2,0,0,1,11.71,6.43Z" style="fill:#309e3a"/><path d="M12.28,6.38l0,0a.13.13,0,0,0,.1,0,.14.14,0,0,0,0-.09.19.19,0,0,0,0-.08.07.07,0,0,0-.06,0,.2.2,0,0,0-.11,0H12v.49h.11v-.2h.06a.05.05,0,0,1,0,0l0,.07.07.11h.13l-.06-.1A.24.24,0,0,0,12.28,6.38Zm-.15-.11h-.07V6.14h.15l0,0s0,0,0,0,0,0,0,0l0,0Z" style="fill:#309e3a"/><path d="M12.86,6.15a.18.18,0,0,0-.07-.05h-.27l0,.49h.27l.07,0a.16.16,0,0,0,.06-.08.44.44,0,0,0,0-.1.49.49,0,0,0,0-.12A.36.36,0,0,0,12.86,6.15Zm-.06.28,0,.05,0,0h-.14l0-.33h.12l0,0,0,0v.09a.28.28,0,0,1,0,.09Z" style="fill:#309e3a"/><path d="M15.3,6.55l-.11,0-.16,0L14.92,7,15,7l0-.18.06,0h.11a.12.12,0,0,0,.1,0,.11.11,0,0,0,0-.07.17.17,0,0,0,0-.1A.11.11,0,0,0,15.3,6.55Zm-.09.19h-.13l0-.13h.11s0,0,0,0a.06.06,0,0,1,0,0,.05.05,0,0,1,0,0Z" style="fill:#309e3a"/><path d="M15.73,6.7l-.19-.07-.17.46.09,0,.07-.2h0l0,0,0,0s0,0,0,.08l0,.13.11,0,0-.1,0-.1a.09.09,0,0,0,0,0h.1a.18.18,0,0,0,.07-.08V6.81a.16.16,0,0,0,0-.07Zm0,.16s0,0,0,0h0l-.08,0-.07,0h0l0-.12.07,0,.07,0,0,0s0,0,0,0Z" style="fill:#309e3a"/><path d="M16.25,6.9a.22.22,0,0,0-.11,0l-.07,0A.1.1,0,0,0,16,7a.27.27,0,0,0-.06.12.23.23,0,0,0,0,.2.28.28,0,0,0,.15.11.22.22,0,0,0,.18,0A.29.29,0,0,0,16.39,7,.24.24,0,0,0,16.25,6.9Zm.05.28a.14.14,0,0,1-.07.11.14.14,0,0,1-.11,0A.27.27,0,0,1,16,7.24a.33.33,0,0,1,0-.14h0A.21.21,0,0,1,16.12,7a.12.12,0,0,1,.1,0,.11.11,0,0,1,.08.07.15.15,0,0,1,0,.13Z" style="fill:#309e3a"/><path d="M17.42,7.63a.22.22,0,0,0,0-.08.07.07,0,0,0,0-.06.31.31,0,0,0-.09-.07l-.18-.1-.23.44.09,0,.09-.18h0l0,0s0,0,0,0,0,.06,0,.09v.13l.11,0V7.85a.34.34,0,0,0,0-.1l0-.06h.11Zm-.1,0,0,0h0l-.09,0-.06,0,.05-.11.07,0,.07,0a.05.05,0,0,1,0,0A.08.08,0,0,1,17.32,7.59Z" style="fill:#309e3a"/><path d="M19.05,8.57l-.1,0h-.07l-.08,0a.38.38,0,0,0-.09.09.27.27,0,0,0-.05.19.25.25,0,0,0,.1.16.23.23,0,0,0,.18,0,.25.25,0,0,0,.16-.12.26.26,0,0,0,0-.19A.23.23,0,0,0,19.05,8.57Zm0,.29a.14.14,0,0,1-.1.08.08.08,0,0,1-.1,0,.16.16,0,0,1-.06-.08.18.18,0,0,1,0-.13h0a.18.18,0,0,1,.11-.08.09.09,0,0,1,.1,0,.24.24,0,0,1,.06.09A.15.15,0,0,1,19,8.86Z" style="fill:#309e3a"/><polygon points="14.36 6.76 14.63 6.82 14.64 6.76 14.45 6.72 14.47 6.62 14.64 6.66 14.65 6.6 14.48 6.57 14.5 6.49 14.69 6.53 14.7 6.47 14.44 6.41 14.36 6.76" style="fill:#309e3a"/></svg>
